<svg width="24" height="24" viewBox="0 0 24 24" fill="none" xmlns="http://www.w3.org/2000/svg">
    <path
        d="M14.12 9.99995H19V8.19995H15.38L13.38 4.86995C13.08 4.36995 12.54 4.02995 11.92 4.02995C11.74 4.02995 11.58 4.05995 11.42 4.10995L6 5.79995V11H7.8V7.32995L9.91 6.66995L6 22H7.8L10.67 13.89L13 17V22H14.8V15.59L12.31 11.05L13.04 8.17995M14 3.79995C15 3.79995 15.8 2.99995 15.8 1.99995C15.8 0.999951 15 0.199951 14 0.199951C13 0.199951 12.2 0.999951 12.2 1.99995C12.2 2.99995 13 3.79995 14 3.79995Z"
        fill="#05CFD2" />
</svg>
    