<svg width="16" height="16" viewBox="0 0 16 16" fill="none" xmlns="http://www.w3.org/2000/svg">
    <path
        d="M3.99984 2H10.6665V10.6667L5.99984 15.3333L5.1665 14.5C5.08873 14.4222 5.02473 14.3167 4.9745 14.1833C4.92428 14.05 4.89939 13.9222 4.89984 13.8V13.5667L5.63317 10.6667H1.99984C1.64428 10.6667 1.33317 10.5333 1.0665 10.2667C0.799837 10 0.666504 9.68889 0.666504 9.33333V8C0.666504 7.92222 0.674726 7.83889 0.691171 7.75C0.707615 7.66111 0.732726 7.57778 0.766504 7.5L2.7665 2.8C2.8665 2.57778 3.03317 2.38889 3.2665 2.23333C3.49984 2.07778 3.74428 2 3.99984 2ZM11.9998 10.6667V2H14.6665V10.6667H11.9998Z"
        fill="white" />
</svg>
    