<svg width="16" height="16" viewBox="0 0 16 16" fill="none" xmlns="http://www.w3.org/2000/svg">
    <path
        d="M12.0002 14H5.3335V5.33329L10.0002 0.666626L10.8335 1.49996C10.9113 1.57774 10.9753 1.68329 11.0255 1.81663C11.0757 1.94996 11.1006 2.07774 11.1002 2.19996V2.43329L10.3668 5.33329H14.0002C14.3557 5.33329 14.6668 5.46663 14.9335 5.73329C15.2002 5.99996 15.3335 6.31107 15.3335 6.66663V7.99996C15.3335 8.07774 15.3253 8.16107 15.3088 8.24996C15.2924 8.33885 15.2673 8.42218 15.2335 8.49996L13.2335 13.2C13.1335 13.4222 12.9668 13.6111 12.7335 13.7666C12.5002 13.9222 12.2557 14 12.0002 14ZM4.00016 5.33329V14H1.3335V5.33329H4.00016Z"
        fill="white" />
</svg>
    