<svg width="18" height="18" viewBox="0 0 18 18" fill="none" xmlns="http://www.w3.org/2000/svg">
    <path d="M7.94288 10.0575C8.25038 10.35 8.25038 10.83 7.94288 11.1225C7.65038 11.415 7.17038 11.415 6.87788 11.1225C6.17541 10.419 5.78086 9.46544 5.78086 8.47126C5.78086 7.47708 6.17541 6.52353 6.87788 5.82001L9.53288 3.16501C10.2364 2.46255 11.1899 2.06799 12.1841 2.06799C13.1783 2.06799 14.1319 2.46255 14.8354 3.16501C15.5378 3.86853 15.9324 4.82208 15.9324 5.81626C15.9324 6.81044 15.5378 7.76399 14.8354 8.46751L13.7179 9.58501C13.7254 8.97001 13.6279 8.35501 13.4179 7.77001L13.7704 7.41001C13.9806 7.20203 14.1475 6.95441 14.2615 6.68148C14.3754 6.40856 14.434 6.11575 14.434 5.82001C14.434 5.52427 14.3754 5.23146 14.2615 4.95854C14.1475 4.68562 13.9806 4.438 13.7704 4.23001C13.5624 4.01976 13.3148 3.85284 13.0418 3.73893C12.7689 3.62501 12.4761 3.56635 12.1804 3.56635C11.8846 3.56635 11.5918 3.62501 11.3189 3.73893C11.046 3.85284 10.7984 4.01976 10.5904 4.23001L7.94288 6.87751C7.73262 7.0855 7.56571 7.33312 7.45179 7.60604C7.33788 7.87896 7.27922 8.17177 7.27922 8.46751C7.27922 8.76325 7.33788 9.05606 7.45179 9.32898C7.56571 9.60191 7.73262 9.84953 7.94288 10.0575ZM10.0579 6.87751C10.3504 6.58501 10.8304 6.58501 11.1229 6.87751C11.8253 7.58103 12.2199 8.53458 12.2199 9.52876C12.2199 10.5229 11.8253 11.4765 11.1229 12.18L8.46788 14.835C7.76436 15.5375 6.81081 15.932 5.81663 15.932C4.82244 15.932 3.8689 15.5375 3.16538 14.835C2.46291 14.1315 2.06836 13.1779 2.06836 12.1838C2.06836 11.1896 2.46291 10.236 3.16538 9.53251L4.28288 8.41501C4.27538 9.03001 4.37288 9.64501 4.58288 10.2375L4.23038 10.59C4.02012 10.798 3.85321 11.0456 3.73929 11.3185C3.62538 11.5915 3.56672 11.8843 3.56672 12.18C3.56672 12.4758 3.62538 12.7686 3.73929 13.0415C3.85321 13.3144 4.02012 13.562 4.23038 13.77C4.43836 13.9803 4.68598 14.1472 4.9589 14.2611C5.23183 14.375 5.52463 14.4337 5.82038 14.4337C6.11612 14.4337 6.40893 14.375 6.68185 14.2611C6.95477 14.1472 7.20239 13.9803 7.41038 13.77L10.0579 11.1225C10.2681 10.9145 10.435 10.6669 10.549 10.394C10.6629 10.1211 10.7215 9.82825 10.7215 9.53251C10.7215 9.23677 10.6629 8.94396 10.549 8.67104C10.435 8.39812 10.2681 8.1505 10.0579 7.94251C9.98504 7.87426 9.92697 7.79178 9.88728 7.70019C9.84759 7.6086 9.82711 7.50983 9.82711 7.41001C9.82711 7.31019 9.84759 7.21143 9.88728 7.11983C9.92697 7.02824 9.98504 6.94577 10.0579 6.87751Z" fill="#292929"/>
    </svg>
    