<svg width="22" height="22" viewBox="0 0 22 22" fill="none" xmlns="http://www.w3.org/2000/svg">
    <path
        d="M10.9997 1.83337C5.95801 1.83337 1.83301 5.95837 1.83301 11C1.83301 16.0417 5.95801 20.1667 10.9997 20.1667C16.0413 20.1667 20.1663 16.0417 20.1663 11C20.1663 5.95837 16.0413 1.83337 10.9997 1.83337ZM3.66634 11C3.66634 6.96671 6.96634 3.66671 10.9997 3.66671C12.6497 3.66671 14.208 4.21671 15.4913 5.22504L5.22467 15.4917C4.21634 14.2084 3.66634 12.65 3.66634 11ZM10.9997 18.3334C9.34967 18.3334 7.79134 17.7834 6.50801 16.775L16.7747 6.50837C17.783 7.79171 18.333 9.35004 18.333 11C18.333 15.0334 15.033 18.3334 10.9997 18.3334Z"
        fill="#000080" />
</svg>
    