<svg width="16" height="16" viewBox="0 0 16 16" fill="none" xmlns="http://www.w3.org/2000/svg">
    <path
        d="M7.96665 12C8.19998 12 8.39731 11.9194 8.55865 11.758C8.71998 11.5967 8.80042 11.3996 8.79998 11.1667C8.79998 10.9334 8.71954 10.736 8.55865 10.5747C8.39776 10.4134 8.20042 10.3329 7.96665 10.3334C7.73331 10.3334 7.5362 10.414 7.37531 10.5754C7.21442 10.7367 7.13376 10.9338 7.13331 11.1667C7.13331 11.4 7.21398 11.5974 7.37531 11.7587C7.53665 11.92 7.73376 12.0005 7.96665 12ZM7.36665 9.43337H8.59998C8.59998 9.06671 8.64176 8.77782 8.72531 8.56671C8.80887 8.3556 9.04487 8.06671 9.43331 7.70004C9.7222 7.41115 9.94998 7.13604 10.1166 6.87471C10.2833 6.61337 10.3666 6.2996 10.3666 5.93337C10.3666 5.31115 10.1389 4.83337 9.68331 4.50004C9.22776 4.16671 8.68887 4.00004 8.06665 4.00004C7.43331 4.00004 6.91931 4.16671 6.52465 4.50004C6.12998 4.83337 5.85509 5.23337 5.69998 5.70004L6.79998 6.13337C6.85554 5.93337 6.98065 5.71671 7.17531 5.48337C7.36998 5.25004 7.66709 5.13337 8.06665 5.13337C8.4222 5.13337 8.68887 5.23071 8.86665 5.42537C9.04442 5.62004 9.13331 5.83382 9.13331 6.06671C9.13331 6.28893 9.06665 6.49737 8.93331 6.69204C8.79998 6.88671 8.63331 7.06715 8.43331 7.23337C7.94442 7.66671 7.64442 7.99449 7.53331 8.21671C7.4222 8.43893 7.36665 8.84449 7.36665 9.43337ZM7.99998 14.6667C7.07776 14.6667 6.21109 14.4916 5.39998 14.1414C4.58887 13.7912 3.88331 13.3163 3.28331 12.7167C2.68331 12.1167 2.20842 11.4112 1.85865 10.6C1.50887 9.78893 1.33376 8.92226 1.33331 8.00004C1.33331 7.07782 1.50842 6.21115 1.85865 5.40004C2.20887 4.58893 2.68376 3.88337 3.28331 3.28337C3.88331 2.68337 4.58887 2.20849 5.39998 1.85871C6.21109 1.50893 7.07776 1.33382 7.99998 1.33337C8.9222 1.33337 9.78887 1.50849 10.6 1.85871C11.4111 2.20893 12.1166 2.68382 12.7166 3.28337C13.3166 3.88337 13.7918 4.58893 14.142 5.40004C14.4922 6.21115 14.6671 7.07782 14.6666 8.00004C14.6666 8.92226 14.4915 9.78893 14.1413 10.6C13.7911 11.4112 13.3162 12.1167 12.7166 12.7167C12.1166 13.3167 11.4111 13.7918 10.6 14.142C9.78887 14.4923 8.9222 14.6672 7.99998 14.6667Z"
        fill="#363636" />
</svg>
    