<svg width="872" height="209" viewBox="0 0 872 209" fill="none" xmlns="http://www.w3.org/2000/svg">
    <g filter="url(#filter0_d_130_918)">
        <path
            d="M19.8532 30.1754H46.8257L63.3395 21.5071L69.945 19.2701L80.9541 17.3128L99.6697 19.2701L115.083 26.2607L128.431 24.0237L136.55 17.3128L157.468 26.2607L205.358 17.3128H220.771L229.578 24.0237L257.651 26.2607L282.973 22.6256L306.642 24.0237L330.312 26.2607L339.119 23.1848L351.78 19.2701L357.835 22.6256L360.037 26.2607L393.615 16.1943L426.092 26.2607L437.651 24.0237L473.982 16.1943L487.193 19.2701L529.578 26.2607L540.725 24.0237L565.908 33.5308L600.587 20.6682L606.642 12L630.862 19.2701L642.972 17.3128L692.514 31.8531L744.807 16.1943L762.422 24.0237L783.89 31.8531H811.413L830.128 22.346L844.44 24.0237L840.587 29.3365L849.945 34.3697L844.44 43.5972L848.844 63.4502L856 72.3981L849.945 82.3246L849.394 84.7014L833.431 92.2512L837.284 98.6825L834.532 100.36L832.881 104.275L838.936 108.19L832.881 110.427L834.532 113.223L849.945 121.192L838.936 130.839L849.945 140.626L844.991 148.455V161.038L838.936 169.706L849.945 179.493L820.22 183.967L798.408 179.493H773.431L755.817 189L714.532 176.697L689.761 181.73L652.881 174.18L643.798 169.706V172.782L637.468 176.697L616.55 181.73L603.339 179.493L592.261 183.967L576.367 187.043L540.725 179.493L525.174 176.697L493.798 181.73L483.339 187.043L437.651 179.493L420.037 176.697L386.115 187.043L334.578 179.493L283.041 181.73L277.468 179.493L263.156 183.967L236.183 179.493L221.321 176.697L185.541 172.782L155.266 183.967L128.431 179.493L111.78 170.545L87.0092 172.782L66.0917 176.697L25.3578 172.782L27.0092 166.63L25.3578 159.36L37.4679 146.218L33.0642 141.464L24.2569 138.668L19.8532 134.194L16 122.73L27.0092 116.299V112.664L30.8624 108.469L27.0092 105.114L37.4679 102.038L35.8165 93.3697L25.3578 82.3246L32.5138 73.7962V64.5687L25.3578 57.8578L37.4679 46.1137L25.3578 38.564L19.8532 30.1754Z"
            fill="white" />
    </g>
    <defs>
        <filter id="filter0_d_130_918" x="0" y="0" width="872" height="209"
            filterUnits="userSpaceOnUse" color-interpolation-filters="sRGB">
            <feFlood flood-opacity="0" result="BackgroundImageFix" />
            <feColorMatrix in="SourceAlpha" type="matrix"
                values="0 0 0 0 0 0 0 0 0 0 0 0 0 0 0 0 0 0 127 0" result="hardAlpha" />
            <feOffset dy="4" />
            <feGaussianBlur stdDeviation="8" />
            <feComposite in2="hardAlpha" operator="out" />
            <feColorMatrix type="matrix"
                values="0 0 0 0 0.231373 0 0 0 0 0.337255 0 0 0 0 0.713726 0 0 0 0.08 0" />
            <feBlend mode="normal" in2="BackgroundImageFix" result="effect1_dropShadow_130_918" />
            <feBlend mode="normal" in="SourceGraphic" in2="effect1_dropShadow_130_918"
                result="shape" />
        </filter>
    </defs>
</svg>
    