<svg width="763" height="468" viewBox="0 0 763 468" fill="none" xmlns="http://www.w3.org/2000/svg">
    <g filter="url(#filter0_d_130_749)">
        <path
            d="M19.3261 41.6892H41.7738L55.5173 27.5297L61.0147 23.8757L70.1771 20.6784L85.7531 23.8757L98.5803 35.2946L109.69 31.6405L116.447 20.6784L133.855 35.2946L173.712 20.6784H186.539L193.869 31.6405L217.233 35.2946L238.306 29.3568L258.005 31.6405L277.704 35.2946L285.034 30.2703L295.571 23.8757L300.61 29.3568L302.442 35.2946L330.388 18.8514L357.416 35.2946L367.037 31.6405L397.273 18.8514L408.267 23.8757L443.542 35.2946L452.819 31.6405L473.778 47.1703L502.64 26.1595L507.679 12L527.836 23.8757L537.914 20.6784L579.145 44.4297L622.666 18.8514L637.326 31.6405L655.192 44.4297H678.098L725.588 28.9L737.499 31.6405L734.292 40.3189L741.961 82.787L737.38 97.86L741.044 130.29L747 144.906L741.961 161.121L741.503 165.003L728.217 177.336L731.424 187.841L729.133 190.582L727.759 196.976L732.798 203.371L727.759 207.025L729.133 211.592L741.961 224.61L732.798 240.368L741.961 256.355L737.838 269.144V289.698L732.798 416.484L741.961 432.47L685.309 439.778L667.156 432.47H646.369L631.709 448L597.35 427.903L576.735 436.124L546.041 423.792L538.482 416.484V421.508L533.214 427.903L515.806 436.124L504.811 432.47L495.591 439.778L482.363 444.803L452.7 432.47L439.758 427.903L413.646 436.124L404.941 444.803L366.918 432.47L352.258 427.903L324.026 444.803L281.135 432.47L238.244 436.124L233.606 432.47L221.695 439.778L199.247 432.47L186.878 427.903L157.1 421.508L131.904 439.778L109.57 432.47L95.7123 417.854L75.0971 421.508L57.6886 427.903L23.788 421.508L25.1623 298.833L23.788 286.957L33.8666 265.49L30.2016 257.725L22.8718 253.157L19.2068 245.849L16 227.122L25.1623 216.617V210.679L28.3692 203.828L25.1623 198.346L33.8666 193.322L32.4922 179.163L23.788 161.121L29.7435 147.19V132.117L23.788 121.155L33.8666 101.971L23.788 89.6384L19.3261 41.6892Z"
            fill="#F9FDFE" />
    </g>
    <defs>
        <filter id="filter0_d_130_749" x="0" y="0" width="763" height="468"
            filterUnits="userSpaceOnUse" color-interpolation-filters="sRGB">
            <feFlood flood-opacity="0" result="BackgroundImageFix" />
            <feColorMatrix in="SourceAlpha" type="matrix"
                values="0 0 0 0 0 0 0 0 0 0 0 0 0 0 0 0 0 0 127 0" result="hardAlpha" />
            <feOffset dy="4" />
            <feGaussianBlur stdDeviation="8" />
            <feComposite in2="hardAlpha" operator="out" />
            <feColorMatrix type="matrix"
                values="0 0 0 0 0.231373 0 0 0 0 0.337255 0 0 0 0 0.713726 0 0 0 0.08 0" />
            <feBlend mode="normal" in2="BackgroundImageFix" result="effect1_dropShadow_130_749" />
            <feBlend mode="normal" in="SourceGraphic" in2="effect1_dropShadow_130_749"
                result="shape" />
        </filter>
    </defs>
</svg>
    